<svg viewBox="0 0 1024 1024" xmlns="http://www.w3.org/2000/svg">
  <defs>
    <linearGradient id="bgGradient" x1="0%" y1="0%" x2="100%" y2="100%">
      <stop offset="0%" stop-color="#7a3a62" />
      <stop offset="100%" stop-color="#3a1a30" />
    </linearGradient>
    <linearGradient id="noteGradient" x1="0%" y1="0%" x2="100%" y2="100%">
      <stop offset="0%" stop-color="#c15a9a" />
      <stop offset="45%" stop-color="#a35a80" />
      <stop offset="100%" stop-color="#d4a24c" />
    </linearGradient>
  </defs>
  <rect x="0" y="0" width="1024" height="1024" fill="url(#bgGradient)" />
  <g transform="translate(512 512) scale(13.6) translate(-26 -30)">
    <path d="M 38 8 A 15 15 0 0 1 38 34" stroke="#6b8a80" stroke-width="1.3" fill="none" opacity="0.55" stroke-linecap="round" />
    <path d="M 43 3 A 22 22 0 0 1 43 39" stroke="#6b8a80" stroke-width="1.1" fill="none" opacity="0.35" stroke-linecap="round" />
    <ellipse cx="15" cy="47" rx="9.5" ry="6.8" transform="rotate(-16 15 47)" fill="url(#noteGradient)" />
    <rect x="22.2" y="9" width="2.8" height="39" rx="1.4" fill="url(#noteGradient)" />
    <path d="M 24.6 9 C 32 6.5 41 10.5 39.5 19 C 38.3 25.5 30.5 27.5 26 25 C 30.5 20.5 31.5 14 24.6 9 Z" fill="url(#noteGradient)" />
  </g>
</svg>
